/////////////////////////////////////////////////////////////////////////////
// sfz definition file
// copyright Chicken Systems, Inc.
// -------------------------------------------------------------------------
// Application: Translator 6 6.0, Build 34
// Vendor: 


<region> sample=..\..\processed drums\kicks\wams20_kick_tight-low-mids_p.wav lokey=36 hikey=36 end=12304 pitch_keycenter=36 bend_up=700 bend_down=-700 amp_veltrack=59.842518 ampeg_decay=200.199997 ampeg_release=200.199997 pitchlfo_freq=5.998879 

<region> sample=..\..\processed drums\percussion\wams20_rimshot_laser_p.wav lokey=37 hikey=37 end=6304 pitch_keycenter=37 bend_up=700 bend_down=-700 amp_veltrack=59.842518 ampeg_decay=200.199997 ampeg_release=200.199997 pitchlfo_freq=5.998879 

<region> sample=..\..\processed drums\snares\wams20_snare_classic-acoustic-1b_p.wav lokey=38 hikey=38 end=8808 pitch_keycenter=38 bend_up=700 bend_down=-700 amp_veltrack=59.842518 ampeg_decay=200.199997 ampeg_release=200.199997 pitchlfo_freq=5.998879 

<region> sample=..\..\processed drums\snares\wams20_snare_clap-3_p.wav lokey=39 hikey=39 end=13232 pitch_keycenter=39 bend_up=700 bend_down=-700 amp_veltrack=59.842518 ampeg_decay=200.199997 ampeg_release=200.199997 pitchlfo_freq=5.998879 

<region> sample=..\..\processed drums\snares\wams20_snare_full-spec-a_p.wav lokey=40 hikey=40 end=17088 pitch_keycenter=40 bend_up=700 bend_down=-700 amp_veltrack=59.842518 ampeg_decay=200.199997 ampeg_release=200.199997 pitchlfo_freq=5.998879 

<region> sample=..\..\processed drums\toms\wams20_tom_bass-bomb_p.wav lokey=41 hikey=41 end=137216 pitch_keycenter=41 bend_up=700 bend_down=-700 amp_veltrack=59.842518 ampeg_decay=200.199997 ampeg_release=200.199997 pitchlfo_freq=5.998879 

<region> sample=..\..\processed drums\cymbals\wams20_cl-hat_noise-smack-2_p.wav lokey=42 hikey=42 end=8144 pitch_keycenter=42 bend_up=700 bend_down=-700 amp_veltrack=59.842518 ampeg_decay=200.199997 ampeg_release=200.199997 pitchlfo_freq=5.998879 

<region> sample=..\..\processed drums\toms\wams20_tom_metallic-2_p.wav lokey=43 hikey=43 end=21184 pitch_keycenter=43 bend_up=700 bend_down=-700 amp_veltrack=59.842518 ampeg_decay=200.199997 ampeg_release=200.199997 pitchlfo_freq=5.998879 

<region> sample=..\..\processed drums\cymbals\wams20_cl-hat_plastic_p.wav lokey=44 hikey=44 end=9216 pitch_keycenter=44 bend_up=700 bend_down=-700 amp_veltrack=59.842518 ampeg_decay=200.199997 ampeg_release=200.199997 pitchlfo_freq=5.998879 

<region> sample=..\..\processed drums\toms\wams20_tom_metallic-1_p.wav lokey=45 hikey=45 end=26048 pitch_keycenter=45 bend_up=700 bend_down=-700 amp_veltrack=59.842518 ampeg_decay=200.199997 ampeg_release=200.199997 pitchlfo_freq=5.998879 

<region> sample=..\..\processed drums\cymbals\wams20_op-hat_plastic_p.wav lokey=46 hikey=46 end=20096 pitch_keycenter=46 bend_up=700 bend_down=-700 amp_veltrack=59.842518 ampeg_decay=200.199997 ampeg_release=200.199997 pitchlfo_freq=5.998879 

<region> sample=..\..\processed drums\percussion\wams20_clave_pop-1b_p.wav lokey=47 hikey=47 end=4640 pitch_keycenter=47 bend_up=700 bend_down=-700 amp_veltrack=59.842518 ampeg_decay=200.199997 ampeg_release=200.199997 pitchlfo_freq=5.998879 

<region> sample=..\..\processed drums\percussion\wams20_clave_plasic_P.wav lokey=48 hikey=48 end=4520 pitch_keycenter=48 bend_up=700 bend_down=-700 amp_veltrack=59.842518 ampeg_decay=200.199997 ampeg_release=200.199997 pitchlfo_freq=5.998879 

<region> sample=..\..\processed drums\cymbals\wams20_splash_chunky-classic_p.wav lokey=49 hikey=49 end=190585 pitch_keycenter=49 bend_up=700 bend_down=-700 amp_veltrack=59.842518 ampeg_decay=200.199997 ampeg_release=200.199997 pitchlfo_freq=5.998879 

<region> sample=..\..\processed drums\cymbals\wams20_op-hat_classic-detune-1_p.wav lokey=50 hikey=50 end=28032 pitch_keycenter=50 bend_up=700 bend_down=-700 amp_veltrack=59.842518 ampeg_decay=200.199997 ampeg_release=200.199997 pitchlfo_freq=5.998879 

